<svg width="29" height="22" viewBox="0 0 29 22" xmlns="http://www.w3.org/2000/svg">
<path d="M1.00519 5.33876C1.00519 4.48373 1.52029 4.02268 2.5505 3.95562L6.52034 3.98077C6.78677 3.98077 6.96439 4.10651 7.0532 4.35799C7.46173 5.61538 7.91911 6.70094 8.42533 7.61465C8.93155 8.52835 9.59319 9.58038 10.4103 10.7707C10.4813 10.9216 10.5968 10.997 10.7566 10.997C10.881 10.997 10.9786 10.9384 11.0497 10.821L11.1296 10.5444L11.1563 6.19379C11.1563 5.89201 11.0808 5.69083 10.9298 5.59024C10.7788 5.48965 10.4991 5.4142 10.0905 5.36391C9.77081 5.31361 9.61096 5.12919 9.61096 4.81065C9.61096 4.74359 9.61984 4.69329 9.6376 4.65976C10.0106 3.57002 11.0763 3.02515 12.8348 3.02515L14.3268 3C15.0018 3 15.5613 3.15927 16.0053 3.47781C16.4494 3.79635 16.6714 4.29931 16.6714 4.98669V10.6953C16.7958 10.7791 16.9112 10.821 17.0178 10.821C17.2842 10.821 17.5151 10.6701 17.7105 10.3683C19.6643 7.78649 20.7212 6.05966 20.881 5.18787C20.881 5.1711 20.8988 5.12919 20.9343 5.06213C21.0587 4.81065 21.2629 4.5927 21.5471 4.40828C21.8313 4.22387 22.08 4.09813 22.2931 4.03107C22.3642 3.99753 22.4441 3.98077 22.5329 3.98077H26.6626L26.9291 4.00592C27.2843 4.00592 27.5596 4.16519 27.755 4.48373C27.8261 4.58432 27.8749 4.69329 27.9015 4.81065C27.9282 4.92801 27.9459 5.04536 27.9548 5.16272C27.9637 5.28008 27.9682 5.34714 27.9682 5.36391V5.53994C27.8438 6.22732 27.5285 6.9608 27.0223 7.74038C26.5161 8.51997 25.8722 9.36243 25.0907 10.2678C24.3091 11.1731 23.8207 11.7682 23.6253 12.0533C23.4654 12.2544 23.3855 12.4389 23.3855 12.6065C23.3855 12.7406 23.4566 12.8915 23.5987 13.0592L27.4886 17.6864C27.7017 17.9546 27.8083 18.248 27.8083 18.5666C27.8083 18.9522 27.6484 19.2707 27.3287 19.5222C27.009 19.7737 26.6271 19.9162 26.1831 19.9497L25.7301 19.9749H21.6803C21.6626 19.9749 21.6271 19.979 21.5738 19.9874C21.5205 19.9958 21.485 20 21.4672 20C21.0764 20 20.7123 19.8407 20.3748 19.5222C20.2505 19.3881 19.4157 18.3989 17.8704 16.5547C17.7816 16.4374 17.6572 16.3284 17.4974 16.2278C17.4263 16.4961 17.3331 16.8817 17.2176 17.3846C17.1021 17.8876 17.0178 18.248 16.9645 18.466L16.8846 18.8935C16.7069 19.4803 16.3339 19.8323 15.7655 19.9497L15.3925 19.9749H12.7815C11.3072 19.9749 9.83742 19.3378 8.37205 18.0636C6.90667 16.7894 5.58783 15.1423 4.41552 13.122C3.24322 11.1018 2.15085 8.75049 1.1384 6.06805C1.04959 5.8501 1.00519 5.607 1.00519 5.33876ZM17.0178 11.8521C16.6448 11.8521 16.3073 11.7557 16.0053 11.5629C15.7034 11.3701 15.5524 11.106 15.5524 10.7707V4.98669C15.5524 4.65138 15.4636 4.41248 15.286 4.26997C15.1083 4.12747 14.7975 4.05621 14.3535 4.05621L12.8348 4.10651C12.071 4.10651 11.4937 4.23225 11.103 4.48373C11.8845 4.8358 12.2753 5.40582 12.2753 6.19379V10.6198C12.2398 11.039 12.0621 11.3868 11.7424 11.6635C11.4227 11.9401 11.0675 12.0784 10.6767 12.0784C10.1438 12.0784 9.73529 11.8353 9.4511 11.3491C8.06565 9.37081 7.03544 7.4931 6.36048 5.71598L6.12069 5.06213L2.57714 5.03698C2.34623 5.03698 2.21746 5.04956 2.19081 5.0747C2.16417 5.09985 2.15085 5.1711 2.15085 5.28846C2.15085 5.43935 2.16861 5.59862 2.20413 5.76627L2.76364 7.17456C4.25566 10.8126 5.87646 13.6795 7.62603 15.7751C9.37561 17.8708 11.0941 18.9186 12.7815 18.9186H15.4458C15.5524 18.9186 15.6323 18.8893 15.6856 18.8306C15.7389 18.7719 15.7833 18.6588 15.8188 18.4911L15.8721 18.2396L16.3783 16.0266C16.5204 15.7249 16.6448 15.5237 16.7513 15.4231C16.9467 15.2387 17.1776 15.1465 17.4441 15.1465C17.8704 15.1465 18.3055 15.3895 18.7496 15.8757L21.0143 18.5917C21.1564 18.8097 21.3073 18.9186 21.4672 18.9186H25.8633C26.3962 18.9186 26.6626 18.7929 26.6626 18.5414C26.6626 18.4576 26.636 18.3738 26.5827 18.2899L22.7194 13.7382C22.4175 13.3861 22.2665 13.0089 22.2665 12.6065C22.2665 12.2041 22.4086 11.8185 22.6928 11.4497C22.9237 11.1144 23.3722 10.557 24.0383 9.77737C24.7044 8.99778 25.2861 8.26849 25.7834 7.5895C26.2807 6.9105 26.6093 6.29438 26.7692 5.74112L26.8491 5.4142C26.8314 5.38067 26.8225 5.32618 26.8225 5.25074C26.8225 5.1753 26.8136 5.11243 26.7958 5.06213H22.6129C22.3464 5.16272 22.1333 5.31361 21.9734 5.51479L21.8136 5.9926C21.3695 7.14941 20.2061 8.93491 18.3233 11.3491C17.9503 11.6844 17.5151 11.8521 17.0178 11.8521Z"/>
</svg>
