<svg width="29" height="22" viewBox="0 0 29 22" xmlns="http://www.w3.org/2000/svg">
<path d="M17.8561 10.7927L12.6197 7.30184C12.5211 7.23691 12.4068 7.19985 12.2889 7.19459C12.1709 7.18934 12.0538 7.21608 11.9498 7.27198C11.8458 7.32789 11.7589 7.41087 11.6982 7.51215C11.6375 7.61343 11.6054 7.72924 11.6052 7.84729V14.8291C11.6053 14.9481 11.6379 15.0648 11.6994 15.1667C11.7609 15.2686 11.849 15.3518 11.9543 15.4073C12.0576 15.4631 12.1743 15.4895 12.2916 15.4837C12.4089 15.478 12.5224 15.4402 12.6197 15.3746L17.8561 11.8837C17.9461 11.8239 18.0199 11.7429 18.071 11.6477C18.1221 11.5526 18.1488 11.4462 18.1488 11.3382C18.1488 11.2302 18.1221 11.1239 18.071 11.0287C18.0199 10.9335 17.9461 10.8525 17.8561 10.7927ZM12.9143 13.6073V9.06911L16.3179 11.3382L12.9143 13.6073ZM25.3943 5.04366C25.2993 4.67547 25.1183 4.33511 24.866 4.05061C24.6138 3.76611 24.2975 3.54561 23.9434 3.40729C20.2234 1.9782 14.2561 2.00002 14.0052 2.00002C13.7543 2.00002 7.78701 1.9782 4.06701 3.40729C3.71283 3.54561 3.39659 3.76611 3.14433 4.05061C2.89208 4.33511 2.71103 4.67547 2.6161 5.04366C2.33246 6.11275 2.00519 8.07638 2.00519 11.3382C2.00519 14.6 2.33246 16.5637 2.6161 17.6327C2.71103 18.0009 2.89208 18.3413 3.14433 18.6258C3.39659 18.9103 3.71283 19.1308 4.06701 19.2691C7.78701 20.6982 13.7543 20.6764 14.0052 20.6764H14.0816C14.8343 20.6764 20.3979 20.6327 23.9434 19.2691C24.2975 19.1308 24.6138 18.9103 24.866 18.6258C25.1183 18.3413 25.2993 18.0009 25.3943 17.6327C25.6779 16.5637 26.0052 14.6 26.0052 11.3382C26.0052 8.07638 25.6779 6.11275 25.3943 5.04366ZM24.1288 17.3055C24.0859 17.472 24.0042 17.6259 23.8905 17.7548C23.7767 17.8838 23.6341 17.984 23.4743 18.0473C19.9834 19.3891 14.0706 19.3673 14.0052 19.3673C13.9397 19.3673 8.02701 19.3891 4.5361 18.0473C4.37626 17.984 4.23365 17.8838 4.1199 17.7548C4.00615 17.6259 3.92448 17.472 3.88155 17.3055C3.61973 16.3018 3.31428 14.4582 3.31428 11.3382C3.31428 8.2182 3.61973 6.37457 3.88155 5.37093C3.92448 5.20445 4.00615 5.05047 4.1199 4.92156C4.23365 4.79264 4.37626 4.69243 4.5361 4.62911C8.02701 3.28729 13.9397 3.30911 14.0052 3.30911C14.0706 3.30911 19.9834 3.28729 23.4743 4.62911C23.6341 4.69243 23.7767 4.79264 23.8905 4.92156C24.0042 5.05047 24.0859 5.20445 24.1288 5.37093C24.3906 6.37457 24.6961 8.2182 24.6961 11.3382C24.6961 14.4582 24.3906 16.3018 24.1288 17.3055Z"/>
</svg>
